<svg width="78" height="78" viewBox="0 0 78 78" fill="none" xmlns="http://www.w3.org/2000/svg">
<g filter="url(#filter0_d_5_2860)">
<rect x="4" width="70" height="70" rx="14" fill="#6078FF" fill-opacity="0.15"/>
<path d="M40.1 29.5C40.1 28.8925 39.6075 28.4 39 28.4C38.3925 28.4 37.9 28.8925 37.9 29.5H40.1ZM35.1996 39.4274C34.7829 39.8694 34.8034 40.5656 35.2454 40.9823C35.6874 41.3991 36.3836 41.3786 36.8004 40.9366L35.1996 39.4274ZM24.8128 21.141C24.3384 21.5206 24.2615 22.2128 24.641 22.6872C25.0206 23.1616 25.7128 23.2385 26.1872 22.859L24.8128 21.141ZM29.9372 19.859C30.4116 19.4794 30.4885 18.7872 30.109 18.3128C29.7294 17.8384 29.0372 17.7615 28.5628 18.141L29.9372 19.859ZM51.8128 22.859C52.2872 23.2385 52.9794 23.1616 53.359 22.6872C53.7385 22.2128 53.6616 21.5206 53.1872 21.141L51.8128 22.859ZM49.4372 18.141C48.9628 17.7615 48.2706 17.8384 47.891 18.3128C47.5115 18.7872 47.5884 19.4794 48.0628 19.859L49.4372 18.141ZM38.4552 37.5778L39.2556 38.3324L38.4552 37.5778ZM37.9 29.5V36.2058H40.1V29.5H37.9ZM36.8004 40.9366L39.2556 38.3324L37.6549 36.8232L35.1996 39.4274L36.8004 40.9366ZM26.1872 22.859L29.9372 19.859L28.5628 18.141L24.8128 21.141L26.1872 22.859ZM53.1872 21.141L49.4372 18.141L48.0628 19.859L51.8128 22.859L53.1872 21.141ZM52.9 35.5C52.9 43.1768 46.6768 49.4 39 49.4V51.6C47.8918 51.6 55.1 44.3918 55.1 35.5H52.9ZM39 49.4C31.3232 49.4 25.1 43.1768 25.1 35.5H22.9C22.9 44.3918 30.1082 51.6 39 51.6V49.4ZM25.1 35.5C25.1 27.8232 31.3232 21.6 39 21.6V19.4C30.1082 19.4 22.9 26.6082 22.9 35.5H25.1ZM39 21.6C46.6768 21.6 52.9 27.8232 52.9 35.5H55.1C55.1 26.6082 47.8918 19.4 39 19.4V21.6ZM37.9 36.2058C37.9 36.4354 37.8123 36.6562 37.6549 36.8232L39.2556 38.3324C39.7979 37.7572 40.1 36.9964 40.1 36.2058H37.9Z" fill="#6078FF"/>
</g>
<defs>
<filter id="filter0_d_5_2860" x="0" y="0" width="78" height="78" filterUnits="userSpaceOnUse" color-interpolation-filters="sRGB">
<feFlood flood-opacity="0" result="BackgroundImageFix"/>
<feColorMatrix in="SourceAlpha" type="matrix" values="0 0 0 0 0 0 0 0 0 0 0 0 0 0 0 0 0 0 127 0" result="hardAlpha"/>
<feOffset dy="4"/>
<feGaussianBlur stdDeviation="2"/>
<feComposite in2="hardAlpha" operator="out"/>
<feColorMatrix type="matrix" values="0 0 0 0 0 0 0 0 0 0 0 0 0 0 0 0 0 0 0.25 0"/>
<feBlend mode="normal" in2="BackgroundImageFix" result="effect1_dropShadow_5_2860"/>
<feBlend mode="normal" in="SourceGraphic" in2="effect1_dropShadow_5_2860" result="shape"/>
</filter>
</defs>
</svg>
